<mxfile host="Electron" modified="2025-04-23T08:08:40.573Z" agent="Mozilla/5.0 (Windows NT 10.0; Win64; x64) AppleWebKit/537.36 (KHTML, like Gecko) draw.io/22.1.16 Chrome/120.0.6099.109 Electron/28.1.0 Safari/537.36" etag="ZXk9OUNyArIJCD9e-KxX" version="22.1.16" type="device">
  <diagram id="R2lEEEUBdFMjLlhIrx00" name="Page-1">
    <mxGraphModel dx="1448" dy="670" grid="1" gridSize="10" guides="1" tooltips="1" connect="1" arrows="1" fold="1" page="1" pageScale="1" pageWidth="850" pageHeight="1100" math="0" shadow="0" extFonts="Permanent Marker^https://fonts.googleapis.com/css?family=Permanent+Marker">
      <root>
        <mxCell id="0" />
        <mxCell id="1" parent="0" />
        <mxCell id="Fh6Lu8cb1re8dtvutPfo-1" value="用户" style="rounded=0;whiteSpace=wrap;html=1;" parent="1" vertex="1">
          <mxGeometry x="180" y="355" width="100" height="50" as="geometry" />
        </mxCell>
        <mxCell id="Fh6Lu8cb1re8dtvutPfo-2" value="电影" style="rounded=0;whiteSpace=wrap;html=1;" parent="1" vertex="1">
          <mxGeometry x="760" y="345" width="100" height="50" as="geometry" />
        </mxCell>
        <mxCell id="Fh6Lu8cb1re8dtvutPfo-3" value="收藏" style="rhombus;whiteSpace=wrap;html=1;" parent="1" vertex="1">
          <mxGeometry x="440" y="360" width="110" height="70" as="geometry" />
        </mxCell>
        <mxCell id="Fh6Lu8cb1re8dtvutPfo-5" value="评论" style="rounded=0;whiteSpace=wrap;html=1;" parent="1" vertex="1">
          <mxGeometry x="445" y="520" width="100" height="50" as="geometry" />
        </mxCell>
        <mxCell id="Fh6Lu8cb1re8dtvutPfo-6" value="拥有" style="rhombus;whiteSpace=wrap;html=1;" parent="1" vertex="1">
          <mxGeometry x="650" y="480" width="110" height="70" as="geometry" />
        </mxCell>
        <mxCell id="Fh6Lu8cb1re8dtvutPfo-7" value="撰写" style="rhombus;whiteSpace=wrap;html=1;" parent="1" vertex="1">
          <mxGeometry x="210" y="480" width="110" height="70" as="geometry" />
        </mxCell>
        <mxCell id="Fh6Lu8cb1re8dtvutPfo-10" value="" style="endArrow=none;html=1;rounded=0;exitX=1;exitY=0.5;exitDx=0;exitDy=0;entryX=0;entryY=0.75;entryDx=0;entryDy=0;" parent="1" source="Fh6Lu8cb1re8dtvutPfo-3" target="Fh6Lu8cb1re8dtvutPfo-2" edge="1">
          <mxGeometry width="50" height="50" relative="1" as="geometry">
            <mxPoint x="530" y="280" as="sourcePoint" />
            <mxPoint x="600" y="280" as="targetPoint" />
          </mxGeometry>
        </mxCell>
        <mxCell id="Fh6Lu8cb1re8dtvutPfo-12" value="" style="endArrow=none;html=1;rounded=0;exitX=0.5;exitY=1;exitDx=0;exitDy=0;entryX=0.5;entryY=0;entryDx=0;entryDy=0;" parent="1" source="Fh6Lu8cb1re8dtvutPfo-1" target="Fh6Lu8cb1re8dtvutPfo-7" edge="1">
          <mxGeometry width="50" height="50" relative="1" as="geometry">
            <mxPoint x="320" y="375" as="sourcePoint" />
            <mxPoint x="390" y="375" as="targetPoint" />
          </mxGeometry>
        </mxCell>
        <mxCell id="Fh6Lu8cb1re8dtvutPfo-13" value="" style="endArrow=none;html=1;rounded=0;exitX=0.5;exitY=1;exitDx=0;exitDy=0;entryX=0.5;entryY=0;entryDx=0;entryDy=0;" parent="1" source="Fh6Lu8cb1re8dtvutPfo-2" target="Fh6Lu8cb1re8dtvutPfo-6" edge="1">
          <mxGeometry width="50" height="50" relative="1" as="geometry">
            <mxPoint x="330" y="385" as="sourcePoint" />
            <mxPoint x="400" y="385" as="targetPoint" />
          </mxGeometry>
        </mxCell>
        <mxCell id="Fh6Lu8cb1re8dtvutPfo-14" value="" style="endArrow=none;html=1;rounded=0;exitX=1;exitY=1;exitDx=0;exitDy=0;entryX=0;entryY=0.5;entryDx=0;entryDy=0;" parent="1" source="Fh6Lu8cb1re8dtvutPfo-7" target="Fh6Lu8cb1re8dtvutPfo-5" edge="1">
          <mxGeometry width="50" height="50" relative="1" as="geometry">
            <mxPoint x="340" y="395" as="sourcePoint" />
            <mxPoint x="410" y="395" as="targetPoint" />
          </mxGeometry>
        </mxCell>
        <mxCell id="Fh6Lu8cb1re8dtvutPfo-15" value="" style="endArrow=none;html=1;rounded=0;exitX=1;exitY=0.5;exitDx=0;exitDy=0;entryX=0;entryY=1;entryDx=0;entryDy=0;" parent="1" source="Fh6Lu8cb1re8dtvutPfo-5" target="Fh6Lu8cb1re8dtvutPfo-6" edge="1">
          <mxGeometry width="50" height="50" relative="1" as="geometry">
            <mxPoint x="350" y="405" as="sourcePoint" />
            <mxPoint x="420" y="405" as="targetPoint" />
          </mxGeometry>
        </mxCell>
        <mxCell id="Fh6Lu8cb1re8dtvutPfo-17" value="N" style="text;html=1;strokeColor=none;fillColor=none;align=center;verticalAlign=middle;whiteSpace=wrap;rounded=0;" parent="1" vertex="1">
          <mxGeometry x="550" y="400" width="60" height="30" as="geometry" />
        </mxCell>
        <mxCell id="Fh6Lu8cb1re8dtvutPfo-18" value="N" style="text;html=1;strokeColor=none;fillColor=none;align=center;verticalAlign=middle;whiteSpace=wrap;rounded=0;" parent="1" vertex="1">
          <mxGeometry x="630" y="540" width="60" height="30" as="geometry" />
        </mxCell>
        <mxCell id="Fh6Lu8cb1re8dtvutPfo-19" value="1" style="text;html=1;strokeColor=none;fillColor=none;align=center;verticalAlign=middle;whiteSpace=wrap;rounded=0;" parent="1" vertex="1">
          <mxGeometry x="710" y="395" width="60" height="30" as="geometry" />
        </mxCell>
        <mxCell id="Fh6Lu8cb1re8dtvutPfo-20" value="1" style="text;html=1;strokeColor=none;fillColor=none;align=center;verticalAlign=middle;whiteSpace=wrap;rounded=0;" parent="1" vertex="1">
          <mxGeometry x="240" y="435" width="60" height="30" as="geometry" />
        </mxCell>
        <mxCell id="Fh6Lu8cb1re8dtvutPfo-21" value="M" style="text;html=1;strokeColor=none;fillColor=none;align=center;verticalAlign=middle;whiteSpace=wrap;rounded=0;" parent="1" vertex="1">
          <mxGeometry x="390" y="405" width="60" height="30" as="geometry" />
        </mxCell>
        <mxCell id="Fh6Lu8cb1re8dtvutPfo-22" value="用户ID" style="ellipse;whiteSpace=wrap;html=1;" parent="1" vertex="1">
          <mxGeometry x="30" y="380" width="80" height="40" as="geometry" />
        </mxCell>
        <mxCell id="Fh6Lu8cb1re8dtvutPfo-23" value="用户名" style="ellipse;whiteSpace=wrap;html=1;" parent="1" vertex="1">
          <mxGeometry x="50" y="340" width="80" height="40" as="geometry" />
        </mxCell>
        <mxCell id="Fh6Lu8cb1re8dtvutPfo-24" value="密码" style="ellipse;whiteSpace=wrap;html=1;" parent="1" vertex="1">
          <mxGeometry x="90" y="300" width="80" height="40" as="geometry" />
        </mxCell>
        <mxCell id="Fh6Lu8cb1re8dtvutPfo-26" value="头像" style="ellipse;whiteSpace=wrap;html=1;" parent="1" vertex="1">
          <mxGeometry x="320" y="330" width="80" height="40" as="geometry" />
        </mxCell>
        <mxCell id="Fh6Lu8cb1re8dtvutPfo-27" value="邮箱" style="ellipse;whiteSpace=wrap;html=1;" parent="1" vertex="1">
          <mxGeometry x="170" y="270" width="80" height="40" as="geometry" />
        </mxCell>
        <mxCell id="Fh6Lu8cb1re8dtvutPfo-28" value="创建时间" style="ellipse;whiteSpace=wrap;html=1;" parent="1" vertex="1">
          <mxGeometry x="70" y="425" width="80" height="40" as="geometry" />
        </mxCell>
        <mxCell id="Fh6Lu8cb1re8dtvutPfo-29" value="状态" style="ellipse;whiteSpace=wrap;html=1;" parent="1" vertex="1">
          <mxGeometry x="260" y="290" width="80" height="40" as="geometry" />
        </mxCell>
        <mxCell id="Fh6Lu8cb1re8dtvutPfo-31" value="" style="endArrow=none;html=1;rounded=0;exitX=1;exitY=0.5;exitDx=0;exitDy=0;entryX=0;entryY=0.5;entryDx=0;entryDy=0;" parent="1" source="Fh6Lu8cb1re8dtvutPfo-1" target="Fh6Lu8cb1re8dtvutPfo-3" edge="1">
          <mxGeometry width="50" height="50" relative="1" as="geometry">
            <mxPoint x="300" y="420" as="sourcePoint" />
            <mxPoint x="490" y="455" as="targetPoint" />
          </mxGeometry>
        </mxCell>
        <mxCell id="Fh6Lu8cb1re8dtvutPfo-16" value="M" style="text;html=1;strokeColor=none;fillColor=none;align=center;verticalAlign=middle;whiteSpace=wrap;rounded=0;" parent="1" vertex="1">
          <mxGeometry x="280" y="540" width="60" height="30" as="geometry" />
        </mxCell>
        <mxCell id="Fh6Lu8cb1re8dtvutPfo-35" value="电影ID" style="ellipse;whiteSpace=wrap;html=1;" parent="1" vertex="1">
          <mxGeometry x="610" y="340" width="80" height="40" as="geometry" />
        </mxCell>
        <mxCell id="Fh6Lu8cb1re8dtvutPfo-36" value="电影标题" style="ellipse;whiteSpace=wrap;html=1;" parent="1" vertex="1">
          <mxGeometry x="640" y="290" width="80" height="40" as="geometry" />
        </mxCell>
        <mxCell id="Fh6Lu8cb1re8dtvutPfo-37" value="内容简介" style="ellipse;whiteSpace=wrap;html=1;" parent="1" vertex="1">
          <mxGeometry x="700" y="260" width="80" height="40" as="geometry" />
        </mxCell>
        <mxCell id="Fh6Lu8cb1re8dtvutPfo-38" value="评分" style="ellipse;whiteSpace=wrap;html=1;" parent="1" vertex="1">
          <mxGeometry x="920" y="395" width="80" height="40" as="geometry" />
        </mxCell>
        <mxCell id="Fh6Lu8cb1re8dtvutPfo-39" value="导演名称" style="ellipse;whiteSpace=wrap;html=1;" parent="1" vertex="1">
          <mxGeometry x="780" y="250" width="80" height="40" as="geometry" />
        </mxCell>
        <mxCell id="Fh6Lu8cb1re8dtvutPfo-40" value="电影标签" style="ellipse;whiteSpace=wrap;html=1;" parent="1" vertex="1">
          <mxGeometry x="860" y="270" width="80" height="40" as="geometry" />
        </mxCell>
        <mxCell id="Fh6Lu8cb1re8dtvutPfo-41" value="上映时间" style="ellipse;whiteSpace=wrap;html=1;" parent="1" vertex="1">
          <mxGeometry x="900" y="310" width="80" height="40" as="geometry" />
        </mxCell>
        <mxCell id="Fh6Lu8cb1re8dtvutPfo-42" value="海报" style="ellipse;whiteSpace=wrap;html=1;" parent="1" vertex="1">
          <mxGeometry x="910" y="355" width="80" height="40" as="geometry" />
        </mxCell>
        <mxCell id="Fh6Lu8cb1re8dtvutPfo-43" value="创建时间" style="ellipse;whiteSpace=wrap;html=1;" parent="1" vertex="1">
          <mxGeometry x="870" y="420" width="80" height="40" as="geometry" />
        </mxCell>
        <mxCell id="Fh6Lu8cb1re8dtvutPfo-46" value="评分" style="ellipse;whiteSpace=wrap;html=1;" parent="1" vertex="1">
          <mxGeometry x="455" y="450" width="80" height="40" as="geometry" />
        </mxCell>
        <mxCell id="Fh6Lu8cb1re8dtvutPfo-47" value="收藏ID" style="ellipse;whiteSpace=wrap;html=1;" parent="1" vertex="1">
          <mxGeometry x="410" y="300" width="80" height="40" as="geometry" />
        </mxCell>
        <mxCell id="Fh6Lu8cb1re8dtvutPfo-50" value="评论内容" style="ellipse;whiteSpace=wrap;html=1;" parent="1" vertex="1">
          <mxGeometry x="340" y="570" width="80" height="40" as="geometry" />
        </mxCell>
        <mxCell id="Fh6Lu8cb1re8dtvutPfo-51" value="情感状态" style="ellipse;whiteSpace=wrap;html=1;" parent="1" vertex="1">
          <mxGeometry x="570" y="570" width="80" height="40" as="geometry" />
        </mxCell>
        <mxCell id="Fh6Lu8cb1re8dtvutPfo-52" value="创建时间" style="ellipse;whiteSpace=wrap;html=1;" parent="1" vertex="1">
          <mxGeometry x="500" y="620" width="80" height="40" as="geometry" />
        </mxCell>
        <mxCell id="Fh6Lu8cb1re8dtvutPfo-55" value="评论ID" style="ellipse;whiteSpace=wrap;html=1;" parent="1" vertex="1">
          <mxGeometry x="400" y="620" width="80" height="40" as="geometry" />
        </mxCell>
        <mxCell id="Fh6Lu8cb1re8dtvutPfo-61" value="" style="endArrow=none;html=1;rounded=0;entryX=1;entryY=1;entryDx=0;entryDy=0;exitX=0;exitY=0;exitDx=0;exitDy=0;" parent="1" source="Fh6Lu8cb1re8dtvutPfo-1" target="Fh6Lu8cb1re8dtvutPfo-24" edge="1">
          <mxGeometry width="50" height="50" relative="1" as="geometry">
            <mxPoint x="380" y="270" as="sourcePoint" />
            <mxPoint x="430" y="220" as="targetPoint" />
          </mxGeometry>
        </mxCell>
        <mxCell id="Fh6Lu8cb1re8dtvutPfo-62" value="" style="endArrow=none;html=1;rounded=0;entryX=0.5;entryY=1;entryDx=0;entryDy=0;exitX=0.357;exitY=-0.015;exitDx=0;exitDy=0;exitPerimeter=0;" parent="1" source="Fh6Lu8cb1re8dtvutPfo-1" target="Fh6Lu8cb1re8dtvutPfo-27" edge="1">
          <mxGeometry width="50" height="50" relative="1" as="geometry">
            <mxPoint x="190" y="365" as="sourcePoint" />
            <mxPoint x="168" y="344" as="targetPoint" />
          </mxGeometry>
        </mxCell>
        <mxCell id="Fh6Lu8cb1re8dtvutPfo-63" value="" style="endArrow=none;html=1;rounded=0;entryX=0;entryY=1;entryDx=0;entryDy=0;exitX=0.75;exitY=0;exitDx=0;exitDy=0;" parent="1" source="Fh6Lu8cb1re8dtvutPfo-1" target="Fh6Lu8cb1re8dtvutPfo-29" edge="1">
          <mxGeometry width="50" height="50" relative="1" as="geometry">
            <mxPoint x="200" y="375" as="sourcePoint" />
            <mxPoint x="178" y="354" as="targetPoint" />
          </mxGeometry>
        </mxCell>
        <mxCell id="Fh6Lu8cb1re8dtvutPfo-65" value="" style="endArrow=none;html=1;rounded=0;entryX=0.029;entryY=0.724;entryDx=0;entryDy=0;exitX=1;exitY=0.25;exitDx=0;exitDy=0;entryPerimeter=0;" parent="1" source="Fh6Lu8cb1re8dtvutPfo-1" target="Fh6Lu8cb1re8dtvutPfo-26" edge="1">
          <mxGeometry width="50" height="50" relative="1" as="geometry">
            <mxPoint x="430" y="240.86" as="sourcePoint" />
            <mxPoint x="447" y="209.86" as="targetPoint" />
          </mxGeometry>
        </mxCell>
        <mxCell id="Fh6Lu8cb1re8dtvutPfo-66" value="" style="endArrow=none;html=1;rounded=0;entryX=0;entryY=0.5;entryDx=0;entryDy=0;exitX=1;exitY=0.5;exitDx=0;exitDy=0;" parent="1" source="Fh6Lu8cb1re8dtvutPfo-23" target="Fh6Lu8cb1re8dtvutPfo-1" edge="1">
          <mxGeometry width="50" height="50" relative="1" as="geometry">
            <mxPoint x="440" y="250.86" as="sourcePoint" />
            <mxPoint x="457" y="219.86" as="targetPoint" />
          </mxGeometry>
        </mxCell>
        <mxCell id="Fh6Lu8cb1re8dtvutPfo-67" value="" style="endArrow=none;html=1;rounded=0;entryX=0;entryY=0.75;entryDx=0;entryDy=0;exitX=1.014;exitY=0.32;exitDx=0;exitDy=0;exitPerimeter=0;" parent="1" source="Fh6Lu8cb1re8dtvutPfo-22" target="Fh6Lu8cb1re8dtvutPfo-1" edge="1">
          <mxGeometry width="50" height="50" relative="1" as="geometry">
            <mxPoint x="450" y="260.86" as="sourcePoint" />
            <mxPoint x="467" y="229.86" as="targetPoint" />
          </mxGeometry>
        </mxCell>
        <mxCell id="Fh6Lu8cb1re8dtvutPfo-68" value="" style="endArrow=none;html=1;rounded=0;entryX=0.25;entryY=1;entryDx=0;entryDy=0;exitX=0.733;exitY=-0.017;exitDx=0;exitDy=0;exitPerimeter=0;" parent="1" source="Fh6Lu8cb1re8dtvutPfo-28" target="Fh6Lu8cb1re8dtvutPfo-1" edge="1">
          <mxGeometry width="50" height="50" relative="1" as="geometry">
            <mxPoint x="460" y="270.86" as="sourcePoint" />
            <mxPoint x="477" y="239.86" as="targetPoint" />
          </mxGeometry>
        </mxCell>
        <mxCell id="Fh6Lu8cb1re8dtvutPfo-70" value="" style="endArrow=none;html=1;rounded=0;entryX=1;entryY=0.5;entryDx=0;entryDy=0;exitX=0;exitY=0.5;exitDx=0;exitDy=0;" parent="1" source="Fh6Lu8cb1re8dtvutPfo-2" target="Fh6Lu8cb1re8dtvutPfo-35" edge="1">
          <mxGeometry width="50" height="50" relative="1" as="geometry">
            <mxPoint x="760" y="350" as="sourcePoint" />
            <mxPoint x="498" y="442" as="targetPoint" />
          </mxGeometry>
        </mxCell>
        <mxCell id="Fh6Lu8cb1re8dtvutPfo-71" value="" style="endArrow=none;html=1;rounded=0;entryX=0.951;entryY=0.744;entryDx=0;entryDy=0;exitX=0;exitY=0;exitDx=0;exitDy=0;entryPerimeter=0;" parent="1" source="Fh6Lu8cb1re8dtvutPfo-2" target="Fh6Lu8cb1re8dtvutPfo-36" edge="1">
          <mxGeometry width="50" height="50" relative="1" as="geometry">
            <mxPoint x="480" y="480" as="sourcePoint" />
            <mxPoint x="508" y="452" as="targetPoint" />
          </mxGeometry>
        </mxCell>
        <mxCell id="Fh6Lu8cb1re8dtvutPfo-73" value="" style="endArrow=none;html=1;rounded=0;entryX=0.5;entryY=1;entryDx=0;entryDy=0;exitX=0.5;exitY=0;exitDx=0;exitDy=0;" parent="1" source="Fh6Lu8cb1re8dtvutPfo-2" target="Fh6Lu8cb1re8dtvutPfo-39" edge="1">
          <mxGeometry width="50" height="50" relative="1" as="geometry">
            <mxPoint x="560" y="250" as="sourcePoint" />
            <mxPoint x="550" y="180" as="targetPoint" />
          </mxGeometry>
        </mxCell>
        <mxCell id="Fh6Lu8cb1re8dtvutPfo-74" value="" style="endArrow=none;html=1;rounded=0;entryX=0;entryY=1;entryDx=0;entryDy=0;" parent="1" source="Fh6Lu8cb1re8dtvutPfo-2" target="Fh6Lu8cb1re8dtvutPfo-40" edge="1">
          <mxGeometry width="50" height="50" relative="1" as="geometry">
            <mxPoint x="570" y="260" as="sourcePoint" />
            <mxPoint x="560" y="190" as="targetPoint" />
          </mxGeometry>
        </mxCell>
        <mxCell id="Fh6Lu8cb1re8dtvutPfo-75" value="" style="endArrow=none;html=1;rounded=0;exitX=1;exitY=1;exitDx=0;exitDy=0;entryX=0.25;entryY=0;entryDx=0;entryDy=0;" parent="1" source="Fh6Lu8cb1re8dtvutPfo-37" target="Fh6Lu8cb1re8dtvutPfo-2" edge="1">
          <mxGeometry width="50" height="50" relative="1" as="geometry">
            <mxPoint x="580" y="270" as="sourcePoint" />
            <mxPoint x="570" y="200" as="targetPoint" />
          </mxGeometry>
        </mxCell>
        <mxCell id="Fh6Lu8cb1re8dtvutPfo-76" value="" style="endArrow=none;html=1;rounded=0;entryX=0;entryY=0.5;entryDx=0;entryDy=0;exitX=1;exitY=0.5;exitDx=0;exitDy=0;" parent="1" source="Fh6Lu8cb1re8dtvutPfo-2" target="Fh6Lu8cb1re8dtvutPfo-42" edge="1">
          <mxGeometry width="50" height="50" relative="1" as="geometry">
            <mxPoint x="590" y="280" as="sourcePoint" />
            <mxPoint x="580" y="210" as="targetPoint" />
          </mxGeometry>
        </mxCell>
        <mxCell id="Fh6Lu8cb1re8dtvutPfo-77" value="" style="endArrow=none;html=1;rounded=0;entryX=0;entryY=0.5;entryDx=0;entryDy=0;exitX=1;exitY=0.25;exitDx=0;exitDy=0;" parent="1" source="Fh6Lu8cb1re8dtvutPfo-2" target="Fh6Lu8cb1re8dtvutPfo-41" edge="1">
          <mxGeometry width="50" height="50" relative="1" as="geometry">
            <mxPoint x="600" y="290" as="sourcePoint" />
            <mxPoint x="590" y="220" as="targetPoint" />
          </mxGeometry>
        </mxCell>
        <mxCell id="Fh6Lu8cb1re8dtvutPfo-78" value="" style="endArrow=none;html=1;rounded=0;entryX=0.75;entryY=1;entryDx=0;entryDy=0;" parent="1" source="Fh6Lu8cb1re8dtvutPfo-43" target="Fh6Lu8cb1re8dtvutPfo-2" edge="1">
          <mxGeometry width="50" height="50" relative="1" as="geometry">
            <mxPoint x="610" y="300" as="sourcePoint" />
            <mxPoint x="600" y="230" as="targetPoint" />
          </mxGeometry>
        </mxCell>
        <mxCell id="Fh6Lu8cb1re8dtvutPfo-79" value="" style="endArrow=none;html=1;rounded=0;entryX=0;entryY=0;entryDx=0;entryDy=0;exitX=1;exitY=0.75;exitDx=0;exitDy=0;" parent="1" source="Fh6Lu8cb1re8dtvutPfo-2" target="Fh6Lu8cb1re8dtvutPfo-38" edge="1">
          <mxGeometry width="50" height="50" relative="1" as="geometry">
            <mxPoint x="860" y="400" as="sourcePoint" />
            <mxPoint x="610" y="240" as="targetPoint" />
          </mxGeometry>
        </mxCell>
        <mxCell id="Fh6Lu8cb1re8dtvutPfo-80" value="" style="endArrow=none;html=1;rounded=0;entryX=0;entryY=0;entryDx=0;entryDy=0;exitX=1;exitY=1;exitDx=0;exitDy=0;" parent="1" source="Fh6Lu8cb1re8dtvutPfo-5" target="Fh6Lu8cb1re8dtvutPfo-51" edge="1">
          <mxGeometry width="50" height="50" relative="1" as="geometry">
            <mxPoint x="630" y="320" as="sourcePoint" />
            <mxPoint x="620" y="250" as="targetPoint" />
          </mxGeometry>
        </mxCell>
        <mxCell id="Fh6Lu8cb1re8dtvutPfo-81" value="" style="endArrow=none;html=1;rounded=0;exitX=0.75;exitY=1;exitDx=0;exitDy=0;" parent="1" source="Fh6Lu8cb1re8dtvutPfo-5" target="Fh6Lu8cb1re8dtvutPfo-52" edge="1">
          <mxGeometry width="50" height="50" relative="1" as="geometry">
            <mxPoint x="640" y="330" as="sourcePoint" />
            <mxPoint x="630" y="260" as="targetPoint" />
          </mxGeometry>
        </mxCell>
        <mxCell id="Fh6Lu8cb1re8dtvutPfo-82" value="" style="endArrow=none;html=1;rounded=0;entryX=0.686;entryY=0.043;entryDx=0;entryDy=0;entryPerimeter=0;exitX=0.25;exitY=1;exitDx=0;exitDy=0;" parent="1" source="Fh6Lu8cb1re8dtvutPfo-5" target="Fh6Lu8cb1re8dtvutPfo-55" edge="1">
          <mxGeometry width="50" height="50" relative="1" as="geometry">
            <mxPoint x="490" y="560" as="sourcePoint" />
            <mxPoint x="640" y="270" as="targetPoint" />
          </mxGeometry>
        </mxCell>
        <mxCell id="Fh6Lu8cb1re8dtvutPfo-83" value="" style="endArrow=none;html=1;rounded=0;exitX=0;exitY=1;exitDx=0;exitDy=0;" parent="1" source="Fh6Lu8cb1re8dtvutPfo-5" target="Fh6Lu8cb1re8dtvutPfo-50" edge="1">
          <mxGeometry width="50" height="50" relative="1" as="geometry">
            <mxPoint x="660" y="350" as="sourcePoint" />
            <mxPoint x="650" y="280" as="targetPoint" />
          </mxGeometry>
        </mxCell>
        <mxCell id="mBpeOzXWRkAbc6wUv3ee-2" value="创建时间" style="ellipse;whiteSpace=wrap;html=1;" parent="1" vertex="1">
          <mxGeometry x="510" y="300" width="80" height="40" as="geometry" />
        </mxCell>
        <mxCell id="mBpeOzXWRkAbc6wUv3ee-3" value="" style="endArrow=none;html=1;rounded=0;exitX=0.5;exitY=1;exitDx=0;exitDy=0;entryX=0;entryY=0;entryDx=0;entryDy=0;" parent="1" source="Fh6Lu8cb1re8dtvutPfo-47" target="Fh6Lu8cb1re8dtvutPfo-3" edge="1">
          <mxGeometry width="50" height="50" relative="1" as="geometry">
            <mxPoint x="290" y="390" as="sourcePoint" />
            <mxPoint x="450" y="405" as="targetPoint" />
          </mxGeometry>
        </mxCell>
        <mxCell id="mBpeOzXWRkAbc6wUv3ee-4" value="" style="endArrow=none;html=1;rounded=0;exitX=0.5;exitY=1;exitDx=0;exitDy=0;entryX=1;entryY=0;entryDx=0;entryDy=0;" parent="1" source="mBpeOzXWRkAbc6wUv3ee-2" target="Fh6Lu8cb1re8dtvutPfo-3" edge="1">
          <mxGeometry width="50" height="50" relative="1" as="geometry">
            <mxPoint x="460" y="350" as="sourcePoint" />
            <mxPoint x="478" y="388" as="targetPoint" />
          </mxGeometry>
        </mxCell>
        <mxCell id="EgHWhTfz2MefOKEsKqVR-2" value="" style="endArrow=none;html=1;rounded=0;exitX=0.5;exitY=1;exitDx=0;exitDy=0;entryX=0.5;entryY=0;entryDx=0;entryDy=0;" parent="1" source="Fh6Lu8cb1re8dtvutPfo-46" target="Fh6Lu8cb1re8dtvutPfo-5" edge="1">
          <mxGeometry width="50" height="50" relative="1" as="geometry">
            <mxPoint x="520" y="509" as="sourcePoint" />
            <mxPoint x="672" y="521" as="targetPoint" />
          </mxGeometry>
        </mxCell>
        <mxCell id="zk-n_JNucguYWul0IUr9-1" value="角色" style="ellipse;whiteSpace=wrap;html=1;" vertex="1" parent="1">
          <mxGeometry x="150" y="450" width="80" height="40" as="geometry" />
        </mxCell>
        <mxCell id="zk-n_JNucguYWul0IUr9-2" value="" style="endArrow=none;html=1;rounded=0;entryX=0.25;entryY=1;entryDx=0;entryDy=0;exitX=0.625;exitY=0.058;exitDx=0;exitDy=0;exitPerimeter=0;" edge="1" parent="1" source="zk-n_JNucguYWul0IUr9-1" target="Fh6Lu8cb1re8dtvutPfo-1">
          <mxGeometry width="50" height="50" relative="1" as="geometry">
            <mxPoint x="139" y="434" as="sourcePoint" />
            <mxPoint x="215" y="415" as="targetPoint" />
          </mxGeometry>
        </mxCell>
        <mxCell id="zk-n_JNucguYWul0IUr9-3" value="演员名称" style="ellipse;whiteSpace=wrap;html=1;" vertex="1" parent="1">
          <mxGeometry x="790" y="435" width="80" height="40" as="geometry" />
        </mxCell>
        <mxCell id="zk-n_JNucguYWul0IUr9-4" value="" style="endArrow=none;html=1;rounded=0;entryX=0.587;entryY=0.973;entryDx=0;entryDy=0;entryPerimeter=0;" edge="1" parent="1" source="zk-n_JNucguYWul0IUr9-3" target="Fh6Lu8cb1re8dtvutPfo-2">
          <mxGeometry width="50" height="50" relative="1" as="geometry">
            <mxPoint x="894" y="435" as="sourcePoint" />
            <mxPoint x="845" y="405" as="targetPoint" />
          </mxGeometry>
        </mxCell>
      </root>
    </mxGraphModel>
  </diagram>
</mxfile>
